<?xml version="1.0" encoding="UTF-8" standalone="no"?>
<!-- Created with Inkscape (http://www.inkscape.org/) -->

<svg
   width="100mm"
   height="100mm"
   viewBox="0 0 100 100"
   version="1.1"
   id="svg1"
   inkscape:version="1.3 (0e150ed6c4, 2023-07-21)"
   sodipodi:docname="resticat.svg"
   xmlns:inkscape="http://www.inkscape.org/namespaces/inkscape"
   xmlns:sodipodi="http://sodipodi.sourceforge.net/DTD/sodipodi-0.dtd"
   xmlns="http://www.w3.org/2000/svg"
   xmlns:svg="http://www.w3.org/2000/svg">
  <sodipodi:namedview
     id="namedview1"
     pagecolor="#ffffff"
     bordercolor="#000000"
     borderopacity="0.25"
     inkscape:showpageshadow="2"
     inkscape:pageopacity="0.0"
     inkscape:pagecheckerboard="0"
     inkscape:deskcolor="#d1d1d1"
     inkscape:document-units="mm"
     showguides="true"
     inkscape:zoom="0.83699975"
     inkscape:cx="-18.518524"
     inkscape:cy="240.74081"
     inkscape:window-width="1472"
     inkscape:window-height="851"
     inkscape:window-x="0"
     inkscape:window-y="0"
     inkscape:window-maximized="1"
     inkscape:current-layer="layer1">
    <sodipodi:guide
       position="28.048765,72.195872"
       orientation="0,-1"
       id="guide1"
       inkscape:locked="false" />
  </sodipodi:namedview>
  <defs
     id="defs1" />
  <g
     inkscape:label="Layer 1"
     inkscape:groupmode="layer"
     id="layer1">
    <path
       id="path1"
       style="fill:#342f51;fill-opacity:1;stroke-width:0.228789"
       d="m 46.925914,12.341999 c -2.739334,0.224738 -5.465811,0.635375 -8.122893,1.348462 -2.356329,0.610273 -4.660281,1.433423 -6.879168,2.432829 -2.668692,1.201688 -5.210899,2.678984 -7.587202,4.385534 -2.196153,1.58874 -4.239273,3.380531 -6.114063,5.337637 -1.984747,2.109118 -3.78085,4.397758 -5.316886,6.854809 -1.293814,2.062098 -2.424818,4.232017 -3.3508096,6.483851 -1.1180818,2.673082 -1.9514772,5.46158 -2.5203523,8.3012 -0.5221947,2.660044 -0.7906089,5.364062 -0.824549,8.074221 -0.011857,2.896133 0.2378739,5.794895 0.7930289,8.638972 0.4606673,2.389817 1.1188695,4.745698 1.976697,7.023618 1.0055657,2.717683 2.301966,5.323475 3.82403,7.787414 1.435796,2.299653 3.083194,4.461291 4.910305,6.463958 1.984011,2.149101 4.175425,4.106557 6.543299,5.82519 1.99902,1.438384 4.110984,2.73101 6.327231,3.807298 2.566773,1.279541 5.269868,2.280816 8.037722,3.026162 2.618635,0.701624 5.29978,1.145074 8.001212,1.362744 2.890159,0.200212 5.798537,0.14081 8.674609,-0.218877 2.442349,-0.312821 4.86786,-0.809709 7.22154,-1.53684 2.749332,-0.817727 5.409981,-1.927614 7.940834,-3.274221 2.391801,-1.2756 4.654238,-2.780438 6.777078,-4.465006 2.247415,-1.827725 4.334257,-3.853534 6.188291,-6.081385 1.873554,-2.246053 3.524933,-4.678873 4.908589,-7.256895 1.162892,-2.138479 2.133201,-4.384221 2.916163,-6.688722 0.880498,-2.56432 1.489382,-5.212841 1.894705,-7.89212 0.659906,-4.83614 0.579216,-9.783745 -0.382269,-14.574823 C 90.734077,36.99265 84.65954,27.33475 76.064108,20.948317 67.911472,14.818072 57.55597,11.684864 47.370228,12.32674 c -0.148104,0.0051 -0.296209,0.01011 -0.444314,0.01525 z" />
    <path
       id="path1-2"
       style="fill:#9a9bc1;fill-opacity:1;stroke-width:0.0326841"
       d="m 49.468384,62.181234 c -0.391332,0.03211 -0.78083,0.09078 -1.160412,0.192637 -0.336617,0.08719 -0.665751,0.204774 -0.982736,0.347546 -0.381241,0.17167 -0.744412,0.382713 -1.083884,0.626505 -0.313734,0.226963 -0.605609,0.482933 -0.873435,0.76252 -0.283535,0.301302 -0.540122,0.628252 -0.759554,0.979258 -0.184831,0.294586 -0.346403,0.604573 -0.478686,0.926264 -0.159726,0.381869 -0.278782,0.780226 -0.360051,1.185886 -0.0746,0.380006 -0.112939,0.766294 -0.117806,1.153459 -0.0017,0.413734 0.03399,0.827842 0.1133,1.234139 0.06581,0.3414 0.159837,0.677957 0.282384,1.003373 0.14365,0.38824 0.328851,0.760497 0.546287,1.112488 0.205115,0.32852 0.440458,0.637327 0.701473,0.923423 0.28343,0.307013 0.596488,0.586651 0.934754,0.832169 0.285574,0.205483 0.587283,0.390144 0.90389,0.543899 0.36668,0.182791 0.752836,0.32583 1.148243,0.432308 0.374091,0.100246 0.757111,0.163583 1.14303,0.19468 0.412877,0.02861 0.828359,0.02012 1.239226,-0.03126 0.348906,-0.04469 0.695407,-0.115672 1.031646,-0.219549 0.392762,-0.116819 0.772854,-0.275374 1.134403,-0.467746 0.341686,-0.182227 0.664889,-0.397204 0.968152,-0.637857 0.321058,-0.261105 0.619178,-0.550504 0.88404,-0.86877 0.267652,-0.320863 0.503562,-0.66841 0.701226,-1.036699 0.166128,-0.305497 0.304744,-0.626316 0.416595,-0.95553 0.125798,-0.366332 0.212769,-0.744692 0.270671,-1.127446 0.09428,-0.690876 0.08275,-1.397678 -0.05462,-2.082117 -0.289854,-1.50205 -1.157643,-2.881749 -2.385559,-3.794098 -1.16466,-0.875749 -2.644015,-1.323351 -4.099118,-1.231652 -0.02116,7.3e-4 -0.04232,0.0015 -0.06346,0.0022 z" />
    <path
       style="fill:#342f51;fill-opacity:1;stroke-width:0.330219"
       d="M 7.5209501,46.590898 3.1540298,4.1583173 35.799708,15.904955 Z"
       id="path2"
       sodipodi:nodetypes="cccc" />
    <path
       style="fill:#342f51;fill-opacity:1;stroke-width:0.409713"
       d="M 92.571918,47.202052 97.715711,2.9174326 60.644736,15.896976 Z"
       id="path2-5"
       sodipodi:nodetypes="cccc" />
    <rect
       style="fill:#9a9bc1;fill-opacity:1;stroke-width:0.195161"
       id="rect3"
       width="16.663681"
       height="6.0595789"
       x="58.204224"
       y="65.361298"
       inkscape:transform-center-x="-16.667289"
       inkscape:transform-center-y="-0.011362887" />
    <rect
       style="fill:#9a9bc1;fill-opacity:1;stroke-width:0.195195"
       id="rect3-2"
       width="16.543125"
       height="6.105854"
       x="16.99128"
       y="80.896736"
       inkscape:transform-center-x="-14.50904"
       inkscape:transform-center-y="-7.9543428"
       transform="matrix(0.87720134,-0.48012271,0.5030538,0.8642551,0,0)" />
    <rect
       style="fill:#9a9bc1;fill-opacity:1;stroke-width:0.195199"
       id="rect3-2-7"
       width="16.523014"
       height="6.1135068"
       x="87.267143"
       y="29.508959"
       inkscape:transform-center-x="-14.131722"
       inkscape:transform-center-y="8.5693358"
       transform="matrix(0.85471317,0.51910057,-0.54255203,0.8400222,0,0)" />
    <rect
       style="fill:#9a9bc1;fill-opacity:1;stroke-width:0.195589"
       id="rect3-28"
       width="16.700228"
       height="6.0728688"
       x="-41.399632"
       y="-71.341682"
       inkscape:transform-center-x="16.703843"
       inkscape:transform-center-y="0.011390223"
       transform="scale(-1)" />
    <rect
       style="fill:#9a9bc1;fill-opacity:1;stroke-width:0.195625"
       id="rect3-2-9"
       width="16.565556"
       height="6.1245179"
       x="2.3671303"
       y="-87.210846"
       inkscape:transform-center-x="14.273518"
       inkscape:transform-center-y="8.4138556"
       transform="matrix(-0.86181937,0.50721532,-0.53053924,-0.84766038,0,0)" />
    <rect
       style="fill:#9a9bc1;fill-opacity:1;stroke-width:0.195624"
       id="rect3-2-7-7"
       width="16.57423"
       height="6.1212163"
       x="-69.529762"
       y="-38.216221"
       inkscape:transform-center-x="14.453312"
       inkscape:transform-center-y="-8.1201377"
       transform="matrix(-0.87148987,-0.49041351,0.51351027,-0.85808345,0,0)" />
    <path
       style="fill:#9a9bc1;fill-opacity:1;stroke-width:0.486925"
       d="m 18.603805,42.635231 -0.248578,12.794734 10.77174,-6.95809 z"
       id="path3"
       sodipodi:nodetypes="cccc" />
    <path
       style="fill:#9a9bc1;fill-opacity:1;stroke-width:0.555542"
       d="M 19.064445,50.480237 C 19.113936,37.565274 62.760226,15.54054 81.632373,52.400792 57.501287,34.025959 34.264365,41.181318 19.064445,50.480237 Z"
       id="path4"
       sodipodi:nodetypes="ccc" />
  </g>
</svg>
